{
	"scenes":[{
		"nodes":[0]
	}],
	"asset":{
		"version":"2.0",
		"generator":"Created using the official Cinema 4D glTF Exporter 1.000x284978"
	},
	"materials":[{
		"pbrMetallicRoughness":{
			"baseColorTexture":{
				"index":0
			},
			"baseColorFactor":[0.85,
			0.85,
			0.85,
			1.0],
			"metallicFactor":1.0,
			"roughnessFactor":1.0
		},
		"normalTexture":{
			"index":1,
			"scale":1.0
		},
		"occlusionTexture":{
			"index":2,
			"strength":1.0
		},
		"emissiveFactor":[0.0,
		0.0,
		0.0],
		"alphaMode":"OPAQUE",
		"doubleSided":false,
		"name":"DefaultMaterial"
	}],
	"nodes":[{
		"name":"Aset_antique_sculpture_S_ugsifedhw_LOD0",
		"mesh":0
	}],
	"meshes":[{
		"name":"Aset_antique_sculpture_S_ugsifedhw_LOD0",
		"primitives":[{
			"attributes":{
				"TEXCOORD_0":3,
				"POSITION":1,
				"NORMAL":2
			},
			"material":0,
			"indices":0
		}]
	}],
	"accessors":[{
		"bufferView":0,
		"type":"SCALAR",
		"max":[5562],
		"componentType":5123,
		"count":30282,
		"byteOffset":0,
		"min":[0]
	},
	{
		"bufferView":1,
		"type":"VEC3",
		"max":[0.6175508499145508,
		2.181633710861206,
		0.36996325850486758],
		"componentType":5126,
		"count":5563,
		"byteOffset":0,
		"min":[-0.7111259698867798,
		0.0,
		-0.4625599682331085]
	},
	{
		"bufferView":1,
		"type":"VEC3",
		"max":[0.999811053276062,
		0.9992781281471252,
		0.9995406270027161],
		"componentType":5126,
		"count":5563,
		"byteOffset":12,
		"min":[-0.999801754951477,
		-0.9999995231628418,
		-0.9996720552444458]
	},
	{
		"bufferView":1,
		"type":"VEC2",
		"max":[0.970703125,
		0.9706053733825684],
		"componentType":5126,
		"count":5563,
		"byteOffset":24,
		"min":[0.02940068207681179,
		0.066650390625]
	}],
	"bufferViews":[{
		"buffer":0,
		"byteOffset":0,
		"byteLength":60564,
		"target":34963
	},
	{
		"buffer":0,
		"byteOffset":60564,
		"byteLength":178016,
		"target":34962,
		"byteStride":32
	}],
	"buffers":[{
		"uri":"data:application/octet-stream;base64,",
		"byteLength":238580
	}],
	"images":[{
		"uri":"data:image/jpeg;base64,"
	},
	{
		"uri":"data:image/jpeg;base64,"
	},
	{
		"uri":"data:image/jpeg;base64,"
	}],
	"textures":[{
		"sampler":0,
		"source":0
	},
	{
		"sampler":1,
		"source":1
	},
	{
		"sampler":2,
		"source":2
	}],
	"samplers":[{
		"magFilter":9729,
		"minFilter":9729,
		"wrapS":10497,
		"wrapT":10497
	},
	{
		"magFilter":9729,
		"minFilter":9729,
		"wrapS":10497,
		"wrapT":10497
	},
	{
		"magFilter":9729,
		"minFilter":9729,
		"wrapS":10497,
		"wrapT":10497
	}]
}